<svg width="42" height="40" viewBox="0 0 42 40" fill="none" xmlns="http://www.w3.org/2000/svg">
<path d="M16.2208 25.6759L30.1838 15.4383C30.8683 14.9364 31.8467 15.1321 32.173 15.9117C33.8896 20.0231 33.1226 24.964 29.7071 28.3564C26.2917 31.7486 21.5394 32.4926 17.1957 30.7982L12.4506 32.9804C19.2565 37.6008 27.521 36.4581 32.6854 31.3251C36.7819 27.2564 38.0506 21.7104 36.8643 16.7091L36.875 16.7198C35.1547 9.37261 37.298 6.43589 41.6883 0.43072C41.7921 0.288334 41.896 0.145946 42 0L36.2227 5.73819V5.72039L16.2173 25.6795" fill="black"/>
<path d="M13.3394 28.1641C8.45448 23.5294 9.2967 16.3566 13.4648 12.2204C16.5469 9.15903 21.5967 7.90959 26.0049 9.74638L30.7393 7.57498C29.8864 6.96271 28.7932 6.30418 27.5389 5.84141C21.8691 3.52408 15.0811 4.6774 10.4722 9.25158C6.03892 13.6549 4.64477 20.4254 7.03883 26.2028C8.82721 30.5206 5.89555 33.5748 2.9424 36.6575C1.89589 37.7503 0.845802 38.8431 0 40L13.3358 28.1676" fill="black"/>
</svg>
